# xmcd
#
# Track frame offsets: 
#        150
#        24089
#        41065
#        56089
#        73251
#        91136
#        105450
#        132013
#        148641
#        166056
#        183073
#        192248
#
# Disc length: 2758 seconds
#
# Revision: 0
# Processed by: cddbd v1.5.2PL0 Copyright (c) Steve Scherf et al.
# Submitted via: ExactAudioCopy v0.99pb5
#
DISCID=980ac40c
DTITLE=Nick Cave Featuring the Bad Seeds  - Kicking Against The Pricks
DTITLE=Various Artist - Remastered 2009   FLAC
DYEAR=1900
DGENRE=
TTITLE0=Nick Cave and The Bad Seeds - Muddy Water
TTITLE1=Nick Cave and The Bad Seeds - I`m Gonna Kill That Woman
TTITLE2=Nick Cave and The Bad Seeds - Sleeping Annaleah
TTITLE3=Nick Cave and The Bad Seeds - Long Black Veil
TTITLE4=Nick Cave and The Bad Seeds - Hey Joe
TTITLE5=Nick Cave and The Bad Seeds - The Singer
TTITLE6=Nick Cave and The Bad Seeds - All Tomorrows Parties
TTITLE7=Nick Cave and The Bad Seeds - By The Time I Get To Phoenix
TTITLE8=Nick Cave and The Bad Seeds - The Hammer Song
TTITLE9=Nick Cave and The Bad Seeds - Something Gotten Hold Of My Hear
TTITLE9=t
TTITLE10=Nick Cave and The Bad Seeds - Jesus Met The Woman At The Well
TTITLE11=Nick Cave and The Bad Seeds - The Carnival Is Over
EXTD=
EXTT0=
EXTT1=
EXTT2=
EXTT3=
EXTT4=
EXTT5=
EXTT6=
EXTT7=
EXTT8=
EXTT9=
EXTT10=
EXTT11=
PLAYORDER=
